<?xml version="1.0" encoding="UTF-8" standalone="no"?>
<!-- Created with Inkscape (http://www.inkscape.org/) -->

<svg
   width="159mm"
   height="134mm"
   viewBox="0 0 159 134"
   version="1.1"
   id="svg5"
   inkscape:version="1.2 (dc2aedaf03, 2022-05-15)"
   sodipodi:docname="minting.svg"
   xml:space="preserve"
   xmlns:inkscape="http://www.inkscape.org/namespaces/inkscape"
   xmlns:sodipodi="http://sodipodi.sourceforge.net/DTD/sodipodi-0.dtd"
   xmlns="http://www.w3.org/2000/svg"
   xmlns:svg="http://www.w3.org/2000/svg"><sodipodi:namedview
     id="namedview7"
     pagecolor="#ffffff"
     bordercolor="#000000"
     borderopacity="0.25"
     inkscape:showpageshadow="2"
     inkscape:pageopacity="0.0"
     inkscape:pagecheckerboard="0"
     inkscape:deskcolor="#d1d1d1"
     inkscape:document-units="mm"
     showgrid="false"
     inkscape:zoom="0.914906"
     inkscape:cx="397.30857"
     inkscape:cy="562.35285"
     inkscape:window-width="1704"
     inkscape:window-height="1368"
     inkscape:window-x="1699"
     inkscape:window-y="0"
     inkscape:window-maximized="0"
     inkscape:current-layer="layer1" /><defs
     id="defs2"><inkscape:path-effect
       effect="powermask"
       id="path-effect24523"
       is_visible="true"
       lpeversion="1"
       uri="#mask-powermask-path-effect24523"
       invert="false"
       hide_mask="false"
       background="true"
       background_color="#ffffffff" /><inkscape:path-effect
       effect="powermask"
       id="path-effect24491"
       is_visible="true"
       lpeversion="1"
       uri="#mask-powermask-path-effect24491"
       invert="false"
       hide_mask="false"
       background="true"
       background_color="#ffffffff" /><inkscape:path-effect
       effect="powermask"
       id="path-effect24435"
       is_visible="true"
       lpeversion="1"
       uri="#mask-powermask-path-effect24491"
       invert="false"
       hide_mask="false"
       background="true"
       background_color="#ffffffff" /><inkscape:path-effect
       effect="powermask"
       id="path-effect24423"
       is_visible="true"
       lpeversion="1"
       uri="#mask-powermask-path-effect24491"
       invert="false"
       hide_mask="false"
       background="true"
       background_color="#ffffffff" /><symbol
       id="j"
       overflow="visible"><path
         d="m 37.516,-2.25 c -1.9297,1.0117 -3.9453,1.7734 -6.0469,2.2812 -2.0938,0.50781 -4.2812,0.76562 -6.5625,0.76562 -6.793,0 -12.18,-1.8984 -16.156,-5.7031 -3.9688,-3.8008 -5.9531,-8.957 -5.9531,-15.469 0,-6.5195 1.9844,-11.68 5.9531,-15.484 3.9766,-3.8008 9.3633,-5.7031 16.156,-5.7031 2.2812,0 4.4688,0.25781 6.5625,0.76562 2.1016,0.51172 4.1172,1.2656 6.0469,2.2656 v 8.4531 c -1.9492,-1.332 -3.8711,-2.3047 -5.7656,-2.9219 -1.8984,-0.625 -3.8906,-0.9375 -5.9844,-0.9375 -3.7617,0 -6.7188,1.2031 -8.875,3.6094 -2.1484,2.4062 -3.2188,5.7266 -3.2188,9.9531 0,4.2109 1.0703,7.5156 3.2188,9.9219 2.1562,2.4062 5.1133,3.6094 8.875,3.6094 2.0938,0 4.0859,-0.30469 5.9844,-0.92188 1.8945,-0.625 3.8164,-1.5977 5.7656,-2.9219 z"
         id="path12318" /></symbol><symbol
       id="f"
       overflow="visible"><path
         d="m 27.453,-22.281 c -0.85547,-0.40625 -1.7109,-0.70312 -2.5625,-0.89062 -0.84375,-0.19531 -1.6953,-0.29688 -2.5469,-0.29688 -2.5234,0 -4.4609,0.80859 -5.8125,2.4219 -1.3555,1.6172 -2.0312,3.9297 -2.0312,6.9375 V -1e-4 H 4.703 v -30.625 h 9.7969 v 5.0312 c 1.25,-2.0078 2.6914,-3.4727 4.3281,-4.3906 1.6328,-0.91406 3.5859,-1.375 5.8594,-1.375 0.33203,0 0.6875,0.01563 1.0625,0.04687 0.38281,0.02344 0.94141,0.07813 1.6719,0.17188 z"
         id="path12321" /></symbol><symbol
       id="a"
       overflow="visible"><path
         d="m 35.281,-15.391 v 2.7812 H 12.39 c 0.23828,2.3047 1.0664,4.0273 2.4844,5.1719 1.4258,1.1484 3.4141,1.7188 5.9688,1.7188 2.0508,0 4.1562,-0.30078 6.3125,-0.90625 2.1641,-0.61328 4.3906,-1.5391 6.6719,-2.7812 v 7.5469 c -2.3125,0.875 -4.6328,1.5391 -6.9531,1.9844 -2.3125,0.44531 -4.625,0.67188 -6.9375,0.67188 -5.543,0 -9.8516,-1.4062 -12.922,-4.2188 -3.0742,-2.8203 -4.6094,-6.7734 -4.6094,-11.859 0,-5 1.5039,-8.9258 4.5156,-11.781 3.0195,-2.8633 7.1758,-4.2969 12.469,-4.2969 4.8125,0 8.6602,1.4492 11.547,4.3438 2.8945,2.8984 4.3438,6.7734 4.3438,11.625 z m -10.062,-3.2656 c 0,-1.8516 -0.54688,-3.3477 -1.6406,-4.4844 -1.0859,-1.1445 -2.5,-1.7188 -4.25,-1.7188 -1.8984,0 -3.4375,0.53906 -4.625,1.6094 -1.1797,1.0625 -1.9141,2.5938 -2.2031,4.5938 z"
         id="path12324" /></symbol><symbol
       id="e"
       overflow="visible"><path
         d="m 18.438,-13.781 c -2.043,0 -3.5781,0.35156 -4.6094,1.0469 -1.0312,0.6875 -1.5469,1.7031 -1.5469,3.0469 0,1.2422 0.41016,2.2148 1.2344,2.9219 0.83203,0.69922 1.9883,1.0469 3.4688,1.0469 1.8438,0 3.3906,-0.66016 4.6406,-1.9844 1.2578,-1.3203 1.8906,-2.9727 1.8906,-4.9531 v -1.125 z m 14.953,-3.6875 V 5e-4 h -9.875 v -4.5469 c -1.3125,1.8672 -2.793,3.2266 -4.4375,4.0781 -1.6367,0.84375 -3.6328,1.2656 -5.9844,1.2656 -3.168,0 -5.7422,-0.92578 -7.7188,-2.7812 -1.9805,-1.8516 -2.9688,-4.2539 -2.9688,-7.2031 0,-3.5938 1.2344,-6.2266 3.7031,-7.9062 2.4688,-1.6758 6.3477,-2.5156 11.641,-2.5156 h 5.7656 v -0.76562 c 0,-1.5508 -0.60938,-2.6875 -1.8281,-3.4062 -1.21872,-0.7187 -3.125,-1.0781 -5.7188,-1.0781 -2.0938,0 -4.0469,0.21484 -5.8594,0.64062 -1.8047,0.41797 -3.4766,1.043 -5.0156,1.875 v -7.4688 c 2.0938,-0.50781 4.1953,-0.89453 6.3125,-1.1562 2.1133,-0.25781 4.2266,-0.39062 6.3438,-0.39062 5.5195,0 9.5039,1.0898 11.953,3.2656 2.457,2.1797 3.6875,5.7188 3.6875,10.625 z"
         id="path12327" /></symbol><symbol
       id="h"
       overflow="visible"><path
         d="m 15.391,-39.328 v 8.7031 h 10.094 v 7 H 15.391 v 12.984 c 0,1.4297 0.28125,2.3906 0.84375,2.8906 0.57031,0.5 1.6953,0.75 3.375,0.75 h 5.0312 v 7 h -8.3906 c -3.8672,0 -6.6055,-0.80469 -8.2188,-2.4219 -1.6172,-1.6133 -2.4219,-4.3516 -2.4219,-8.2188 v -12.984 h -4.875 v -7 h 4.875 v -8.7031 z"
         id="path12330" /></symbol><symbol
       id="d"
       overflow="visible"><path
         d="m 25.547,-26.141 v -16.406 h 9.8438 V 0 H 25.547 v -4.4375 c -1.3555,1.8125 -2.8438,3.1406 -4.4688,3.9844 -1.6172,0.83203 -3.4922,1.25 -5.625,1.25 -3.7734,0 -6.8711,-1.5 -9.2969,-4.5 -2.4297,-3 -3.6406,-6.8594 -3.6406,-11.578 0,-4.7266 1.2109,-8.5859 3.6406,-11.578 2.4258,-3 5.5234,-4.5 9.2969,-4.5 2.1133,0 3.9844,0.42188 5.6094,1.2656 1.6328,0.84375 3.1289,2.1641 4.4844,3.9531 z m -6.4531,19.828 c 2.0938,0 3.6914,-0.76562 4.7969,-2.2969 1.1016,-1.5312 1.6562,-3.7539 1.6562,-6.6719 0,-2.9141 -0.55469,-5.1406 -1.6562,-6.6719 -1.1055,-1.5312 -2.7031,-2.2969 -4.7969,-2.2969 -2.0859,0 -3.6797,0.76562 -4.7812,2.2969 -1.1055,1.5312 -1.6562,3.7578 -1.6562,6.6719 0,2.918 0.55078,5.1406 1.6562,6.6719 1.1016,1.5312 2.6953,2.2969 4.7812,2.2969 z"
         id="path12333" /></symbol><symbol
       id="c"
       overflow="visible"><path
         d="m 21,-6.3125 c 2.0938,0 3.6914,-0.76562 4.7969,-2.2969 1.1016,-1.5312 1.6562,-3.7539 1.6562,-6.6719 0,-2.9141 -0.55469,-5.1406 -1.6562,-6.6719 -1.1055,-1.5312 -2.7031,-2.2969 -4.7969,-2.2969 -2.0938,0 -3.7031,0.77344 -4.8281,2.3125 -1.1172,1.5312 -1.6719,3.75 -1.6719,6.6562 0,2.8984 0.55469,5.1172 1.6719,6.6562 1.125,1.543 2.7344,2.3125 4.8281,2.3125 z m -6.5,-19.828 c 1.3438,-1.7891 2.832,-3.1094 4.4688,-3.9531 1.6445,-0.84375 3.5352,-1.2656 5.6719,-1.2656 3.7695,0 6.8672,1.5 9.2969,4.5 2.4258,2.9922 3.6406,6.8516 3.6406,11.578 0,4.7188 -1.2148,8.5781 -3.6406,11.578 -2.4297,3 -5.5273,4.5 -9.2969,4.5 -2.1367,0 -4.0273,-0.42188 -5.6719,-1.2656 C 17.3321,-1.32036 15.8438,-2.6446 14.5,-4.4376 V -1e-4 H 4.7031 v -42.547 H 14.5 Z"
         id="path12336" /></symbol><symbol
       id="b"
       overflow="visible"><path
         d="m 0.6875,-30.625 h 9.7812 l 8.2344,20.781 7,-20.781 H 35.5 L 22.609,2.906 c -1.293,3.4062 -2.8047,5.7852 -4.5312,7.1406 -1.7188,1.3633 -3.9922,2.0469 -6.8125,2.0469 H 5.6091 V 5.656 h 3.0625 c 1.6562,0 2.8594,-0.26562 3.6094,-0.79688 0.75781,-0.52344 1.3516,-1.4648 1.7812,-2.8281 l 0.26562,-0.85938 z"
         id="path12339" /></symbol><symbol
       id="g"
       overflow="visible"><path
         d="m 33.094,-25.547 c 1.2383,-1.8945 2.707,-3.3359 4.4062,-4.3281 1.707,-0.98828 3.582,-1.4844 5.625,-1.4844 3.5195,0 6.1953,1.0859 8.0312,3.25 1.8438,2.168 2.7656,5.3203 2.7656,9.4531 V -4e-4 h -9.8438 v -15.969 c 0.01953,-0.23828 0.03516,-0.48438 0.04687,-0.73438 0.0078,-0.25781 0.01563,-0.625 0.01563,-1.0938 0,-2.1758 -0.32422,-3.75 -0.96875,-4.7188 -0.63672,-0.97656 -1.6641,-1.4688 -3.0781,-1.4688 -1.8672,0 -3.3047,0.76562 -4.3125,2.2969 -1.0117,1.5312 -1.5391,3.7461 -1.5781,6.6406 v 15.047 h -9.8438 v -15.969 c 0,-3.3945 -0.29297,-5.5781 -0.875,-6.5469 -0.58594,-0.97656 -1.6211,-1.4688 -3.1094,-1.4688 -1.875,0 -3.3242,0.77344 -4.3438,2.3125 -1.0234,1.543 -1.5312,3.7461 -1.5312,6.6094 v 15.062 h -9.8438 v -30.625 h 9.8438 v 4.4844 c 1.1953,-1.7266 2.5703,-3.0312 4.125,-3.9062 1.5625,-0.875 3.2852,-1.3125 5.1719,-1.3125 2.1133,0 3.9766,0.51172 5.5938,1.5312 1.625,1.0234 2.8594,2.4492 3.7031,4.2812 z"
         id="path12342" /></symbol><symbol
       id="i"
       overflow="visible"><path
         d="M 25.547,-5.2031 C 24.1915,-3.4101 22.7032,-2.0937 21.0782,-1.25 19.461,-0.41406 17.586,0 15.4532,0 11.711,0 8.6173,-1.4688 6.172,-4.4062 3.7345,-7.3515 2.5158,-11.1093 2.5158,-15.6722 c 0,-4.5703 1.2188,-8.3203 3.6562,-11.25 2.4453,-2.9258 5.5391,-4.3906 9.2812,-4.3906 2.1328,0 4.0078,0.42188 5.625,1.2656 1.625,0.83594 3.1133,2.1523 4.4688,3.9531 v -4.5312 h 9.8438 v 27.531 c 0,4.9258 -1.5586,8.6875 -4.6719,11.281 -3.1055,2.6016 -7.6094,3.9062 -13.516,3.9062 -1.918,0 -3.7734,-0.14844 -5.5625,-0.4375 -1.7812,-0.29297 -3.5742,-0.74219 -5.375,-1.3438 v -7.625 c 1.707,0.97656 3.3789,1.707 5.0156,2.1875 1.6445,0.48828 3.3008,0.73438 4.9688,0.73438 3.207,0 5.5547,-0.70312 7.0469,-2.1094 1.5,-1.4062 2.25,-3.6016 2.25,-6.5938 z m -6.4531,-19.047 c -2.0312,0 -3.6172,0.75 -4.75,2.25 -1.125,1.4922 -1.6875,3.6016 -1.6875,6.3281 0,2.8125 0.54688,4.9453 1.6406,6.3906 1.0938,1.4492 2.6914,2.1719 4.7969,2.1719 2.0391,0 3.625,-0.74219 4.75,-2.2344 1.1328,-1.5 1.7031,-3.6094 1.7031,-6.3281 0,-2.7266 -0.57031,-4.8359 -1.7031,-6.3281 -1.125,-1.5 -2.7109,-2.25 -4.75,-2.25 z"
         id="path12345" /></symbol><symbol
       id="t"
       overflow="visible"><path
         d="m 18.766,-1.125 c -0.96875,0.5 -1.9805,0.875 -3.0312,1.125 -1.043,0.25781 -2.1367,0.39062 -3.2812,0.39062 -3.3984,0 -6.0898,-0.94531 -8.0781,-2.8438 -1.9922,-1.9062 -2.9844,-4.4844 -2.9844,-7.7344 0,-3.2578 0.99219,-5.8359 2.9844,-7.7344 1.9883,-1.9062 4.6797,-2.8594 8.0781,-2.8594 1.1445,0 2.2383,0.13281 3.2812,0.39062 1.0508,0.25 2.0625,0.625 3.0312,1.125 v 4.2188 c -0.98047,-0.65625 -1.9453,-1.1406 -2.8906,-1.4531 -0.94922,-0.3125 -1.9492,-0.46875 -3,-0.46875 -1.875,0 -3.3516,0.60547 -4.4219,1.8125 -1.0742,1.1992 -1.6094,2.8555 -1.6094,4.9688 0,2.1055 0.53516,3.7617 1.6094,4.9688 1.0703,1.1992 2.5469,1.7969 4.4219,1.7969 1.0508,0 2.0508,-0.14844 3,-0.45312 0.94531,-0.3125 1.9102,-0.80078 2.8906,-1.4688 z"
         id="path16471" /></symbol><symbol
       id="d-2"
       overflow="visible"><path
         d="m 13.734,-11.141 c -0.4375,-0.19531 -0.87109,-0.34375 -1.2969,-0.4375 -0.41797,-0.10156 -0.83984,-0.15625 -1.2656,-0.15625 -1.2617,0 -2.2305,0.40625 -2.9062,1.2188 -0.67969,0.80469 -1.0156,1.9531 -1.0156,3.4531 v 7.0625 H 2.3591 v -15.312 h 4.8906 v 2.5156 c 0.625,-1 1.3438,-1.7266 2.1562,-2.1875 0.82031,-0.46875 1.8008,-0.70312 2.9375,-0.70312 0.16406,0 0.34375,0.01172 0.53125,0.03125 0.19531,0.01172 0.47656,0.03906 0.84375,0.07813 z"
         id="path16474" /></symbol><symbol
       id="a-9"
       overflow="visible"><path
         d="m 17.641,-7.7031 v 1.4062 H 6.188 c 0.125,1.1484 0.53906,2.0078 1.25,2.5781 0.70703,0.57422 1.7031,0.85938 2.9844,0.85938 1.0312,0 2.082,-0.14844 3.1562,-0.45312 1.082,-0.3125 2.1914,-0.77344 3.3281,-1.3906 v 3.7656 c -1.1562,0.4375 -2.3125,0.76562 -3.4688,0.98438 -1.1562,0.22656 -2.3125,0.34375 -3.4688,0.34375 -2.7734,0 -4.9297,-0.70312 -6.4688,-2.1094 -1.5312,-1.4062 -2.2969,-3.3789 -2.2969,-5.9219 0,-2.5 0.75391,-4.4609 2.2656,-5.8906 1.5078,-1.4375 3.582,-2.1562 6.2188,-2.1562 2.4062,0 4.332,0.73047 5.7812,2.1875 1.4453,1.4492 2.1719,3.3828 2.1719,5.7969 z m -5.0312,-1.625 c 0,-0.92578 -0.27344,-1.6719 -0.8125,-2.2344 -0.54297,-0.57031 -1.25,-0.85938 -2.125,-0.85938 -0.94922,0 -1.7188,0.26562 -2.3125,0.79688 -0.5937,0.53126 -0.96484,1.2969 -1.1094,2.2969 z"
         id="path16477" /></symbol><symbol
       id="m"
       overflow="visible"><path
         d="m 9.2188,-6.8906 c -1.0234,0 -1.793,0.17188 -2.3125,0.51562 -0.51172,0.34375 -0.76562,0.85547 -0.76562,1.5312 0,0.625 0.20703,1.1172 0.625,1.4688 0.41406,0.34375 0.98828,0.51562 1.7188,0.51562 0.92578,0 1.7031,-0.32812 2.3281,-0.98438 0.63281,-0.66406 0.95312,-1.4922 0.95312,-2.4844 v -0.5625 z m 7.4688,-1.8438 V 0 h -4.9219 v -2.2656 c -0.65625,0.92969 -1.3984,1.6055 -2.2188,2.0312 -0.82422,0.41406 -1.8242,0.625 -3,0.625 -1.5859,0 -2.8711,-0.45703 -3.8594,-1.375 -0.99219,-0.92578 -1.4844,-2.1289 -1.4844,-3.6094 0,-1.7891 0.61328,-3.1016 1.8438,-3.9375 1.2383,-0.84375 3.1797,-1.2656 5.8281,-1.2656 h 2.8906 v -0.39062 c 0,-0.76953 -0.30859,-1.332 -0.92188,-1.6875 -0.61719,-0.36328 -1.5703,-0.54688 -2.8594,-0.54688 -1.0547,0 -2.0312,0.10547 -2.9375,0.3125 -0.89844,0.21094 -1.7305,0.52344 -2.5,0.9375 v -3.7344 c 1.0391,-0.25 2.0859,-0.44141 3.1406,-0.57812 1.0625,-0.13281 2.125,-0.20312 3.1875,-0.20312 2.7578,0 4.75,0.54688 5.9688,1.6406 1.2266,1.0859 1.8438,2.8555 1.8438,5.3125 z"
         id="path16480" /></symbol><symbol
       id="c-9"
       overflow="visible"><path
         d="m 7.7031,-19.656 v 4.3438 H 12.75 v 3.5 H 7.7031 v 6.5 c 0,0.71094 0.14062,1.1875 0.42188,1.4375 0.28126,0.25 0.83594,0.375 1.6719,0.375 h 2.5156 v 3.5 h -4.1875 c -1.9375,0 -3.3125,-0.39844 -4.125,-1.2031 -0.80469,-0.8125 -1.2031,-2.1797 -1.2031,-4.1094 v -6.5 h -2.4219 v -3.5 h 2.4219 v -4.3438 z"
         id="path16483" /></symbol><symbol
       id="l"
       overflow="visible"><path
         d="m 12.766,-13.078 v -8.2031 h 4.9219 V -1e-4 H 12.766 v -2.2188 c -0.66797,0.90625 -1.4062,1.5703 -2.2188,1.9844 -0.8126,0.4141 -1.7578,0.625 -2.8281,0.625 -1.8867,0 -3.4336,-0.75 -4.6406,-2.25 -1.2109,-1.5 -1.8125,-3.4258 -1.8125,-5.7812 0,-2.3633 0.60156,-4.2969 1.8125,-5.7969 1.207,-1.5 2.7539,-2.25 4.6406,-2.25 1.0625,0 2,0.21484 2.8125,0.64062 0.82031,0.42969 1.5664,1.0859 2.2344,1.9688 z m -3.2188,9.9219 c 1.0391,0 1.8359,-0.37891 2.3906,-1.1406 0.55078,-0.76953 0.82812,-1.8828 0.82812,-3.3438 0,-1.457 -0.27734,-2.5664 -0.82812,-3.3281 -0.55469,-0.76953 -1.3516,-1.1562 -2.3906,-1.1562 -1.043,0 -1.8398,0.38672 -2.3906,1.1562 -0.55469,0.76172 -0.82812,1.8711 -0.82812,3.3281 0,1.4609 0.27344,2.5742 0.82812,3.3438 0.55078,0.76172 1.3477,1.1406 2.3906,1.1406 z"
         id="path16486" /></symbol><symbol
       id="k"
       overflow="visible"><path
         d="m 10.5,-3.1562 c 1.0508,0 1.8516,-0.37891 2.4062,-1.1406 0.55078,-0.76953 0.82812,-1.8828 0.82812,-3.3438 0,-1.457 -0.27734,-2.5664 -0.82812,-3.3281 -0.55469,-0.76953 -1.3555,-1.1562 -2.4062,-1.1562 -1.0547,0 -1.8594,0.38672 -2.4219,1.1562 -0.55469,0.77344 -0.82812,1.8828 -0.82812,3.3281 0,1.4492 0.27344,2.5586 0.82812,3.3281 0.5625,0.77344 1.3672,1.1562 2.4219,1.1562 z m -3.25,-9.9219 c 0.67578,-0.88281 1.4219,-1.5391 2.2344,-1.9688 0.82031,-0.42578 1.7656,-0.64062 2.8281,-0.64062 1.8945,0 3.4453,0.75 4.6562,2.25 1.207,1.5 1.8125,3.4336 1.8125,5.7969 0,2.3555 -0.60547,4.2812 -1.8125,5.7812 -1.2109,1.5 -2.7617,2.25 -4.6562,2.25 -1.0625,0 -2.0078,-0.21094 -2.8281,-0.625 C 8.6719,-0.6602 7.9258,-1.32032 7.25,-2.21882 V -2e-5 H 2.3594 v -21.281 H 7.25 Z"
         id="path16489" /></symbol><symbol
       id="j-3"
       overflow="visible"><path
         d="m 0.34375,-15.312 h 4.8906 l 4.125,10.391 3.5,-10.391 h 4.8906 l -6.4375,16.766 c -0.64844,1.6953 -1.4023,2.8828 -2.2656,3.5625 -0.86719,0.6875 -2,1.0312 -3.4062,1.0312 H 2.79685 V 2.8289 h 1.5312 c 0.83203,0 1.4375,-0.13672 1.8125,-0.40625 C 6.52336,2.16093 6.82024,1.69218 7.03117,1.01645 L 7.17179,0.59457 Z"
         id="path16492" /></symbol><symbol
       id="f-0"
       overflow="visible"><path
         d="m 2.1875,-5.9688 v -9.3438 h 4.9219 v 1.5312 c 0,0.83594 -0.00781,1.875 -0.015625,3.125 -0.011719,1.25 -0.015625,2.0859 -0.015625,2.5 0,1.2422 0.03125,2.1328 0.09375,2.6719 0.070313,0.54297 0.17969,0.93359 0.32812,1.1719 0.20703,0.32422 0.47266,0.57422 0.79688,0.75 0.32031,0.16797 0.69141,0.25 1.1094,0.25 1.0195,0 1.8203,-0.39062 2.4062,-1.1719 0.58203,-0.78125 0.875,-1.8672 0.875,-3.2656 v -7.5625 h 4.8906 V -6e-4 H 12.6875 V -2.2194 C 11.94531,-1.32096 11.1641,-0.6608 10.3437,-0.235 9.51948,0.17906 8.6093,0.39 7.6093,0.39 5.8476,0.39 4.5038,-0.14906 3.5781,-1.235 2.64841,-2.317 2.1875,-3.8952 2.1875,-5.9694 Z"
         id="path16495" /></symbol><symbol
       id="e-8"
       overflow="visible"><path
         d="M 17.75,-9.3281 V 0 h -4.9219 v -7.1406 c 0,-1.3203 -0.03125,-2.2344 -0.09375,-2.7344 -0.0625,-0.5 -0.16797,-0.86719 -0.3125,-1.1094 -0.1875,-0.3125 -0.44922,-0.55469 -0.78125,-0.73438 -0.32422,-0.17578 -0.69531,-0.26562 -1.1094,-0.26562 -1.0234,0 -1.8242,0.39844 -2.4062,1.1875 -0.58594,0.78125 -0.875,1.8711 -0.875,3.2656 V -1e-4 H 2.3594 v -15.312 H 7.25 v 2.2344 c 0.73828,-0.88281 1.5195,-1.5391 2.3438,-1.9688 0.83203,-0.42578 1.75,-0.64062 2.75,-0.64062 1.7695,0 3.1133,0.54688 4.0312,1.6406 0.91406,1.0859 1.375,2.6562 1.375,4.7188 z"
         id="path16498" /></symbol><symbol
       id="s"
       overflow="visible"><path
         d="M 2.3594,-21.281 H 7.25 V 0 H 2.3594 Z"
         id="path16501" /></symbol><symbol
       id="i-5"
       overflow="visible"><path
         d="M 2.3594,-15.312 H 7.25 V 0 H 2.3594 Z m 0,-5.9688 H 7.25 v 4 H 2.3594 Z"
         id="path16504" /></symbol><symbol
       id="h-2"
       overflow="visible"><path
         d="m 16.547,-12.766 c 0.61328,-0.94531 1.3477,-1.6719 2.2031,-2.1719 0.85156,-0.5 1.7891,-0.75 2.8125,-0.75 1.7578,0 3.0977,0.54688 4.0156,1.6406 0.92578,1.0859 1.3906,2.6562 1.3906,4.7188 V -4e-4 h -4.9219 v -7.9844 -0.35938 c 0.0078,-0.13281 0.01563,-0.32031 0.01563,-0.5625 0,-1.082 -0.16406,-1.8633 -0.48438,-2.3438 -0.3125,-0.48828 -0.82422,-0.73438 -1.5312,-0.73438 -0.92969,0 -1.6484,0.38672 -2.1562,1.1562 -0.51172,0.76172 -0.77344,1.8672 -0.78125,3.3125 v 7.5156 h -4.9219 v -7.9844 c 0,-1.6953 -0.14844,-2.7852 -0.4375,-3.2656 -0.29297,-0.48828 -0.8125,-0.73438 -1.5625,-0.73438 -0.9375,0 -1.6641,0.38672 -2.1719,1.1562 -0.51172,0.76172 -0.76562,1.8594 -0.76562,3.2969 v 7.5312 h -4.9219 v -15.312 h 4.9219 v 2.2344 c 0.60156,-0.86328 1.2891,-1.5156 2.0625,-1.9531 0.78125,-0.4375 1.6406,-0.65625 2.5781,-0.65625 1.0625,0 2,0.25781 2.8125,0.76562 0.8125,0.51172 1.4258,1.2305 1.8438,2.1562 z"
         id="path16507" /></symbol><symbol
       id="g-7"
       overflow="visible"><path
         d="m 14.719,-14.828 v 3.9844 c -0.65625,-0.45703 -1.3242,-0.79688 -2,-1.0156 -0.66797,-0.21875 -1.3594,-0.32812 -2.0781,-0.32812 -1.3672,0 -2.4336,0.40234 -3.2031,1.2031 -0.76172,0.79297 -1.1406,1.9062 -1.1406,3.3438 0,1.4297 0.37891,2.543 1.1406,3.3438 0.76953,0.79297 1.8359,1.1875 3.2031,1.1875 0.75781,0 1.4844,-0.10938 2.1719,-0.32812 0.6875,-0.22656 1.3203,-0.56641 1.9062,-1.0156 v 4 c -0.76172,0.28125 -1.5391,0.48828 -2.3281,0.625 -0.78125,0.14453 -1.5742,0.21875 -2.375,0.21875 -2.7617,0 -4.9219,-0.70703 -6.4844,-2.125 -1.5547,-1.4141 -2.3281,-3.3828 -2.3281,-5.9062 0,-2.5312 0.77344,-4.5039 2.3281,-5.9219 1.5625,-1.4141 3.7227,-2.125 6.4844,-2.125 0.80078,0 1.5938,0.07422 2.375,0.21875 0.78125,0.13672 1.5547,0.35156 2.3281,0.64062 z"
         id="path16510" /></symbol><symbol
       id="b-1"
       overflow="visible"><path
         d="m 9.6406,-12.188 c -1.0859,0 -1.9141,0.39062 -2.4844,1.1719 -0.57422,0.78125 -0.85938,1.9062 -0.85938,3.375 0,1.4688 0.28516,2.5938 0.85938,3.375 0.57031,0.77344 1.3984,1.1562 2.4844,1.1562 1.0625,0 1.875,-0.38281 2.4375,-1.1562 0.57031,-0.78125 0.85938,-1.9062 0.85938,-3.375 0,-1.4688 -0.28906,-2.5938 -0.85938,-3.375 -0.5625,-0.78125 -1.375,-1.1719 -2.4375,-1.1719 z m 0,-3.5 c 2.6328,0 4.6914,0.71484 6.1719,2.1406 1.4766,1.418 2.2188,3.3867 2.2188,5.9062 0,2.5117 -0.74219,4.4805 -2.2188,5.9062 C 14.332,-0.317 12.2734,0.39 9.6406,0.39 6.9922,0.39 4.9258,-0.31703 3.4375,-1.735 1.9453,-3.1608 1.2031,-5.1295 1.2031,-7.6412 c 0,-2.5195 0.74219,-4.4883 2.2344,-5.9062 1.4883,-1.4258 3.5547,-2.1406 6.2031,-2.1406 z"
         id="path16513" /></symbol><symbol
       id="r"
       overflow="visible"><path
         d="m 12.422,-21.281 v 3.2188 H 9.7189 c -0.6875,0 -1.1719,0.125 -1.4531,0.375 -0.27344,0.25 -0.40625,0.6875 -0.40625,1.3125 v 1.0625 h 4.1875 v 3.5 H 7.85955 V -2e-4 h -4.8906 v -11.812 h -2.4375 v -3.5 h 2.4375 v -1.0625 c 0,-1.6641 0.46094,-2.8984 1.3906,-3.7031 0.92578,-0.80078 2.3672,-1.2031 4.3281,-1.2031 z"
         id="path16516" /></symbol><symbol
       id="q"
       overflow="visible"><path
         d="M 17.75,-9.3281 V 0 h -4.9219 v -7.1094 c 0,-1.3438 -0.03125,-2.2656 -0.09375,-2.7656 -0.0625,-0.5 -0.16797,-0.86719 -0.3125,-1.1094 -0.1875,-0.3125 -0.44922,-0.55469 -0.78125,-0.73438 -0.32422,-0.17578 -0.69531,-0.26562 -1.1094,-0.26562 -1.0234,0 -1.8242,0.39844 -2.4062,1.1875 -0.58594,0.78125 -0.875,1.8711 -0.875,3.2656 V -1e-4 H 2.3594 v -21.281 H 7.25 v 8.2031 c 0.73828,-0.88281 1.5195,-1.5391 2.3438,-1.9688 0.83203,-0.42578 1.75,-0.64062 2.75,-0.64062 1.7695,0 3.1133,0.54688 4.0312,1.6406 0.91406,1.0859 1.375,2.6562 1.375,4.7188 z"
         id="path16519" /></symbol><symbol
       id="p"
       overflow="visible"><path
         d="m 2.5781,-20.406 h 5.875 l 7.4219,14 v -14 h 4.9844 V 0 h -5.875 L 7.5625,-14 V 0 H 2.5781 Z"
         id="path16522" /></symbol><symbol
       id="o"
       overflow="visible"><path
         d="m 2.5781,-20.406 h 8.7344 c 2.5938,0 4.582,0.57812 5.9688,1.7344 1.3945,1.1484 2.0938,2.7891 2.0938,4.9219 0,2.1367 -0.69922,3.7812 -2.0938,4.9375 -1.3867,1.1562 -3.375,1.7344 -5.9688,1.7344 H 7.8281 V 3e-4 h -5.25 z m 5.25,3.8125 v 5.7031 H 10.75 c 1.0195,0 1.8047,-0.25 2.3594,-0.75 0.5625,-0.5 0.84375,-1.2031 0.84375,-2.1094 0,-0.91406 -0.28125,-1.6172 -0.84375,-2.1094 -0.55469,-0.48828 -1.3398,-0.73438 -2.3594,-0.73438 z"
         id="path16525" /></symbol><symbol
       id="n"
       overflow="visible"><path
         d="M 2.3594,-15.312 H 7.25 v 15.031 c 0,2.0508 -0.49609,3.6172 -1.4844,4.7031 -0.98047,1.082 -2.4062,1.625 -4.2812,1.625 H -0.9375 V 2.8283 h 0.85938 c 0.92578,0 1.5625,-0.21094 1.9062,-0.625 0.35156,-0.41797 0.53125,-1.2461 0.53125,-2.4844 z m 0,-5.9688 H 7.25 v 4 H 2.3594 Z"
         id="path16528" /></symbol><symbol
       id="x"
       overflow="visible"><path
         d="M 5.625,-0.34375 C 5.34375,-0.1875 5.03906,-0.07031 4.71875,0 4.40625,0.082031 4.07813,0.125 3.73437,0.125 c -1.0234,0 -1.8281,-0.28516 -2.4219,-0.85938 -0.59375,-0.57031 -0.89062,-1.3477 -0.89062,-2.3281 0,-0.97656 0.29688,-1.75 0.89062,-2.3125 0.59375,-0.57031 1.3984,-0.85938 2.4219,-0.85938 0.34375,0 0.67188,0.039063 0.98438,0.10938 0.32031,0.074219 0.625,0.1875 0.90625,0.34375 v 1.2656 C 5.33203,-4.71094 5.04688,-4.85938 4.76562,-4.95313 4.48436,-5.04688 4.17968,-5.09375 3.85937,-5.09375 c -0.5625,0 -1.0078,0.18359 -1.3281,0.54688 -0.32422,0.35547 -0.48438,0.85156 -0.48438,1.4844 0,0.63672 0.16016,1.1367 0.48438,1.5 0.32031,0.35547 0.76562,0.53125 1.3281,0.53125 0.32031,0 0.625,-0.046875 0.90625,-0.14062 0.28125,-0.093745 0.56641,-0.23828 0.85938,-0.4375 z"
         id="path19353" /></symbol><symbol
       id="c-7"
       overflow="visible"><path
         d="m 4.125,-3.3438 c -0.13672,-0.0625 -0.26562,-0.10156 -0.39062,-0.125 -0.125,-0.03125 -0.25,-0.046875 -0.375,-0.046875 -0.38672,0 -0.68359,0.12109 -0.89062,0.35938 -0.19922,0.24219 -0.29688,0.58594 -0.29688,1.0312 v 2.125 h -1.4688 v -4.5938 h 1.4688 v 0.75 c 0.1875,-0.30078 0.39844,-0.51953 0.64062,-0.65625 0.25,-0.13281 0.54688,-0.20312 0.89062,-0.20312 h 0.15625 c 0.0625,0 0.14453,0.011719 0.25,0.03125 z"
         id="path19356" /></symbol><symbol
       id="a-8"
       overflow="visible"><path
         d="m 5.2969,-2.3125 v 0.42188 H 1.8594 c 0.03125,0.34375 0.14844,0.60547 0.35938,0.78125 0.21875,0.16797 0.51953,0.25 0.90625,0.25 0.3125,0 0.62891,-0.046875 0.95312,-0.14062 0.32031,-0.09375 0.65625,-0.22656 1,-0.40625 v 1.125 C 4.7344,-0.14452 4.38284,-0.04686 4.03125,0.01564 3.6875,0.085952 3.34375,0.12502 3.00005,0.12502 c -0.83594,0 -1.4844,-0.21094 -1.9531,-0.64062 -0.46094,-0.42578 -0.6875,-1.0195 -0.6875,-1.7812 0,-0.75 0.22266,-1.3359 0.67188,-1.7656 0.45703,-0.42578 1.082,-0.64062 1.875,-0.64062 0.72656,0 1.3047,0.21875 1.7344,0.65625 0.4375,0.42969 0.65625,1.0078 0.65625,1.7344 z M 3.7813,-2.79688 c 0,-0.28125 -0.085938,-0.50391 -0.25,-0.67188 -0.15625,-0.17578 -0.36719,-0.26562 -0.625,-0.26562 -0.29297,0 -0.52734,0.085937 -0.70312,0.25 -0.17969,0.15625 -0.28906,0.38672 -0.32812,0.6875 z"
         id="path19359" /></symbol><symbol
       id="j-6"
       overflow="visible"><path
         d="m 2.7656,-2.0625 c -0.30469,0 -0.53125,0.054688 -0.6875,0.15625 -0.15625,0.10547 -0.23438,0.25781 -0.23438,0.45312 0,0.1875 0.0625,0.33594 0.1875,0.4375 0.125,0.10547 0.29688,0.15625 0.51562,0.15625 0.28125,0 0.51562,-0.097656 0.70312,-0.29688 0.1875,-0.19531 0.28125,-0.44531 0.28125,-0.75 v -0.15625 z m 2.25,-0.5625 V 0 H 3.5312 V -0.6875 C 3.33198,-0.40625 3.10932,-0.19531 2.85932,-0.0625 2.61713,0.0625 2.32026,0.125 1.9687,0.125 1.48823,0.125 1.09761,-0.01562 0.7968,-0.29688 0.50383,-0.57813 0.3593,-0.9375 0.3593,-1.37498 c 0,-0.53906 0.17969,-0.9375 0.54688,-1.1875 0.375,-0.25 0.95703,-0.375 1.75,-0.375 h 0.875 v -0.125 c 0,-0.22656 -0.09375,-0.39453 -0.28125,-0.5 -0.17969,-0.11328 -0.46484,-0.17188 -0.85938,-0.17188 -0.3125,0 -0.60547,0.03125 -0.875,0.09375 -0.27344,0.0625 -0.52344,0.15625 -0.75,0.28125 v -1.1094 c 0.3125,-0.082031 0.625,-0.14062 0.9375,-0.17188 0.32031,-0.039063 0.64062,-0.0625 0.95312,-0.0625 0.83203,0 1.4297,0.16406 1.7969,0.48438 0.375,0.32422 0.5625,0.85547 0.5625,1.5938 z"
         id="path19362" /></symbol><symbol
       id="b-9"
       overflow="visible"><path
         d="m 2.3125,-5.9062 v 1.3125 h 1.5156 v 1.0469 H 2.3125 v 1.9531 c 0,0.21094 0.039062,0.35547 0.125,0.4375 0.082031,0.074219 0.25,0.10938 0.5,0.10938 H 3.70312 V 8e-5 H 2.43752 C 1.85158,8e-5 1.44143,-0.11711 1.20312,-0.3593 0.96093,-0.59758 0.84374,-1.00774 0.84374,-1.5937 V -3.5468 H 0.10936 v -1.0469 h 0.73438 v -1.3125 z"
         id="path19365" /></symbol><symbol
       id="i-2"
       overflow="visible"><path
         d="M 3.8281,-3.9219 V -6.3907 H 5.3125 V -1e-4 H 3.8281 V -0.67198 C 3.62888,-0.39854 3.40622,-0.19542 3.15622,-0.0626 2.91403,0.0624 2.63278,0.1249 2.31247,0.1249 c -0.5625,0 -1.0273,-0.22266 -1.3906,-0.67188 -0.36719,-0.45703 -0.54688,-1.0391 -0.54688,-1.75 0,-0.70703 0.17969,-1.2852 0.54688,-1.7344 0.36328,-0.44531 0.82812,-0.67188 1.3906,-0.67188 0.32031,0 0.60156,0.0625 0.84375,0.1875 0.25,0.125 0.47266,0.32422 0.67188,0.59375 z m -0.96875,2.9688 c 0.32031,0 0.5625,-0.11328 0.71875,-0.34375 0.16406,-0.22656 0.25,-0.5625 0.25,-1 0,-0.4375 -0.085937,-0.76953 -0.25,-1 C 3.42185,-3.52341 3.17966,-3.6406 2.85935,-3.6406 c -0.3125,0 -0.55469,0.11719 -0.71875,0.34375 -0.15625,0.23047 -0.23438,0.5625 -0.23438,1 0,0.4375 0.078125,0.77344 0.23438,1 0.16406,0.23047 0.40625,0.34375 0.71875,0.34375 z"
         id="path19368" /></symbol><symbol
       id="h-0"
       overflow="visible"><path
         d="m 3.1562,-0.95312 c 0.3125,0 0.55078,-0.11328 0.71875,-0.34375 0.16406,-0.22656 0.25,-0.5625 0.25,-1 0,-0.4375 -0.085938,-0.76953 -0.25,-1 C 3.70698,-3.52343 3.4687,-3.64062 3.1562,-3.64062 c -0.3125,0 -0.55859,0.11719 -0.73438,0.34375 -0.16797,0.23047 -0.25,0.5625 -0.25,1 0,0.4375 0.082031,0.77344 0.25,1 0.17578,0.23047 0.42188,0.34375 0.73438,0.34375 z m -0.98438,-2.9688 c 0.20703,-0.26953 0.42969,-0.46875 0.67188,-0.59375 0.25,-0.125 0.53516,-0.1875 0.85938,-0.1875 0.5625,0 1.0234,0.22656 1.3906,0.67188 0.36328,0.44922 0.54688,1.0273 0.54688,1.7344 0,0.71094 -0.18359,1.293 -0.54688,1.75 -0.36719,0.44922 -0.82812,0.67188 -1.3906,0.67188 -0.32422,0 -0.60938,-0.0625 -0.85938,-0.1875 C 2.60151,-0.19532 2.37886,-0.39845 2.17182,-0.67189 V -1e-5 h -1.4688 v -6.3906 h 1.4688 z"
         id="path19371" /></symbol><symbol
       id="g-3"
       overflow="visible"><path
         d="m 0.10938,-4.5938 h 1.4688 l 1.2344,3.1094 1.0469,-3.1094 h 1.4688 L 3.39078,0.4374 C 3.20328,0.94521 2.97672,1.30068 2.7189,1.4999 2.45718,1.70693 2.11343,1.8124 1.6877,1.8124 H 0.84395 V 0.84365 h 0.45312 c 0.25,0 0.42969,-0.042969 0.54688,-0.125 C 1.95723,0.644431 2.04707,0.50381 2.10957,0.29677 l 0.046875,-0.125 z"
         id="path19374" /></symbol><symbol
       id="f-2"
       overflow="visible"><path
         d="m -0.078125,-6.125 h 1.7188 l 1.4062,2.1875 1.3906,-2.1875 h 1.7344 l -2.3438,3.5469 V 0 h -1.5781 v -2.5781 z"
         id="path19377" /></symbol><symbol
       id="w"
       overflow="visible"><path
         d="M 4.4844,-1.1094 H 2.0156 L 1.62498,0 h -1.5781 l 2.2656,-6.125 h 1.875 L 6.46868,0 H 4.87488 Z M 2.4063,-2.25 H 4.0938 L 3.25005,-4.6875 Z"
         id="path19380" /></symbol><symbol
       id="e-4"
       overflow="visible"><path
         d="m 0.76562,-6.125 h 1.7656 l 2.2344,4.2031 V -6.125 h 1.5 V 0 H 4.50002 L 2.26562,-4.2031 V 0 h -1.5 z"
         id="path19383" /></symbol><symbol
       id="v"
       overflow="visible"><path
         d="m 2.3594,-4.9375 v 3.75 h 0.5625 c 0.64453,0 1.1328,-0.16016 1.4688,-0.48438 0.34375,-0.32031 0.51562,-0.78516 0.51562,-1.3906 0,-0.61328 -0.17188,-1.0781 -0.51562,-1.3906 C 4.05476,-4.77339 3.56648,-4.93746 2.9219,-4.93746 Z M 0.7656,-6.125 h 1.6719 c 0.92578,0 1.6172,0.070312 2.0781,0.20312 0.45703,0.125 0.84766,0.35156 1.1719,0.67188 0.28906,0.27344 0.50391,0.58984 0.64062,0.95312 0.13281,0.36719 0.20312,0.77734 0.20312,1.2344 0,0.46094 -0.070312,0.87109 -0.20312,1.2344 C 6.1914,-1.46089 5.97656,-1.14449 5.6875,-0.87496 5.36328,-0.55074 4.96875,-0.32027 4.5,-0.18746 4.03906,-0.06246 3.3516,4e-5 2.4375,4e-5 H 0.7656 Z"
         id="path19386" /></symbol><symbol
       id="u"
       overflow="visible"><path
         d="m 0.76562,-6.125 h 1.5938 V 0 h -1.5938 z"
         id="path19389" /></symbol><symbol
       id="t-1"
       overflow="visible"><path
         d="m 3.0156,-3.4062 c 0.33203,0 0.56641,-0.0625 0.70312,-0.1875 0.14453,-0.125 0.21875,-0.32812 0.21875,-0.60938 0,-0.28126 -0.074219,-0.47656 -0.21875,-0.59375 C 3.582,-4.92183 3.34763,-4.98433 3.0156,-4.98433 H 2.35935 v 1.5781 z M 2.35935,-2.3124 V 1e-4 h -1.5938 v -6.125 h 2.4219 c 0.80078,0 1.3906,0.13672 1.7656,0.40625 0.38281,0.27344 0.57812,0.69922 0.57812,1.2812 0,0.40625 -0.10156,0.74219 -0.29688,1 -0.19922,0.26172 -0.49609,0.45312 -0.89062,0.57812 0.21875,0.042969 0.41016,0.15234 0.57812,0.32812 0.17578,0.17969 0.35156,0.44531 0.53125,0.79688 L 6.31242,7e-5 h -1.6875 l -0.75,-1.5156 C 3.72648,-1.82803 3.57804,-2.03506 3.4218,-2.14053 3.26555,-2.25381 3.05461,-2.31241 2.7968,-2.31241 Z"
         id="path19392" /></symbol><symbol
       id="s-9"
       overflow="visible"><path
         d="m 5.0312,-5.9375 v 1.2969 C 4.69526,-4.78513 4.36714,-4.89451 4.04682,-4.96872 c -0.3125,-0.082031 -0.61719,-0.125 -0.90625,-0.125 -0.375,0 -0.65625,0.054688 -0.84375,0.15625 -0.17969,0.10547 -0.26562,0.26562 -0.26562,0.48438 0,0.16797 0.0625,0.29688 0.1875,0.39062 0.125,0.085938 0.34375,0.16406 0.65625,0.23438 l 0.67188,0.125 c 0.6875,0.13672 1.1719,0.34375 1.4531,0.625 0.28906,0.28125 0.4375,0.67969 0.4375,1.1875 0,0.67969 -0.20312,1.1836 -0.60938,1.5156 -0.39844,0.33594 -1.0078,0.5 -1.8281,0.5 -0.38672,0 -0.77734,-0.042969 -1.1719,-0.125 -0.38672,-0.070312 -0.77734,-0.17578 -1.1719,-0.3125 v -1.3438 c 0.39453,0.21094 0.77344,0.36719 1.1406,0.46875 0.36328,0.10547 0.71094,0.15625 1.0469,0.15625 0.34375,0 0.60938,-0.054688 0.79688,-0.17188 0.1875,-0.11328 0.28125,-0.27344 0.28125,-0.48438 0,-0.19531 -0.0625,-0.34766 -0.1875,-0.45312 -0.125,-0.10156 -0.375,-0.19141 -0.75,-0.26562 L 2.3749,-2.54691 C 1.75771,-2.67972 1.3124,-2.89066 1.0311,-3.17191 0.74985,-3.46097 0.60922,-3.8516 0.60922,-4.34381 c 0,-0.60156 0.19141,-1.0664 0.57812,-1.3906 0.39453,-0.33203 0.96094,-0.5 1.7031,-0.5 0.34375,0 0.69141,0.027344 1.0469,0.078125 0.35156,0.042969 0.71875,0.11719 1.0938,0.21875 z"
         id="path19395" /></symbol><symbol
       id="r-3"
       overflow="visible"><path
         d="m 3.7344,-6.3906 v 0.96875 H 2.9219 c -0.21094,0 -0.35547,0.039063 -0.4375,0.10938 -0.085937,0.074219 -0.125,0.20312 -0.125,0.39062 v 0.32812 h 1.25 v 1.0469 h -1.25 V 7e-5 H 0.8906 v -3.5469 H 0.15622 v -1.0469 H 0.8906 v -0.32812 c 0,-0.5 0.14062,-0.86719 0.42188,-1.1094 0.28125,-0.23828 0.71094,-0.35938 1.2969,-0.35938 z"
         id="path19398" /></symbol><symbol
       id="d-9"
       overflow="visible"><path
         d="m 2.8906,-3.6562 c -0.32422,0 -0.57422,0.12109 -0.75,0.35938 -0.16797,0.23047 -0.25,0.5625 -0.25,1 0,0.4375 0.082031,0.77734 0.25,1.0156 0.17578,0.23047 0.42578,0.34375 0.75,0.34375 0.32031,0 0.56641,-0.11328 0.73438,-0.34375 0.17578,-0.23828 0.26562,-0.57812 0.26562,-1.0156 0,-0.43748 -0.089844,-0.76953 -0.26562,-1 C 3.45701,-3.5351 3.21092,-3.6562 2.8906,-3.6562 Z m 0,-1.0469 c 0.78906,0 1.4062,0.21484 1.8438,0.64062 0.44531,0.42969 0.67188,1.0156 0.67188,1.7656 0,0.76172 -0.22656,1.3555 -0.67188,1.7812 -0.4375,0.42969 -1.0547,0.64062 -1.8438,0.64062 -0.79297,0 -1.4141,-0.21094 -1.8594,-0.64062 -0.44922,-0.42578 -0.67188,-1.0195 -0.67188,-1.7812 0,-0.75 0.22266,-1.3359 0.67188,-1.7656 0.44531,-0.42578 1.0664,-0.64062 1.8594,-0.64062 z"
         id="path19401" /></symbol><symbol
       id="q-3"
       overflow="visible"><path
         d="M 4.9688,-3.8281 C 5.1563,-4.11716 5.37505,-4.33591 5.62505,-4.48435 5.88286,-4.62888 6.16411,-4.7031 6.4688,-4.7031 c 0.53125,0 0.92969,0.16406 1.2031,0.48438 0.28125,0.32422 0.42188,0.79688 0.42188,1.4219 V 8e-5 h -1.4844 v -2.3906 C 6.61719,-2.429583 6.625005,-2.468645 6.625005,-2.4999 v -0.17188 c 0,-0.32031 -0.046875,-0.55469 -0.14062,-0.70312 -0.09375,-0.14453 -0.25,-0.21875 -0.46875,-0.21875 -0.28125,0 -0.5,0.11719 -0.65625,0.34375 -0.14844,0.23047 -0.21875,0.5625 -0.21875,1 v 2.25 h -1.4844 v -2.3906 c 0,-0.50781 -0.046875,-0.83594 -0.14062,-0.98438 -0.085937,-0.14453 -0.23438,-0.21875 -0.45312,-0.21875 -0.28125,0 -0.5,0.11719 -0.65625,0.34375 -0.15625,0.23047 -0.23438,0.55859 -0.23438,0.98438 V 1e-4 h -1.4688 v -4.5938 h 1.4688 v 0.67188 c 0.1875,-0.25781 0.39453,-0.45312 0.625,-0.57812 0.22656,-0.13281 0.48828,-0.20312 0.78125,-0.20312 0.3125,0 0.58594,0.078125 0.82812,0.23438 0.25,0.14844 0.4375,0.35938 0.5625,0.64062 z"
         id="path19404" /></symbol><symbol
       id="p-9"
       overflow="visible"><path
         d="M 5.3281,-2.7969 V 0 H 3.8437 v -2.1406 c 0,-0.39453 -0.011719,-0.66406 -0.03125,-0.8125 -0.011719,-0.15625 -0.039062,-0.26953 -0.078125,-0.34375 -0.0625,-0.09375 -0.14844,-0.16406 -0.25,-0.21875 -0.09375,-0.050781 -0.20312,-0.078125 -0.32812,-0.078125 -0.30469,0 -0.54297,0.12109 -0.71875,0.35938 -0.17969,0.23047 -0.26562,0.55469 -0.26562,0.96875 V 5e-6 h -1.4688 v -6.3906 h 1.4688 v 2.4688 c 0.22656,-0.26953 0.46094,-0.46875 0.70312,-0.59375 0.25,-0.125 0.52344,-0.1875 0.82812,-0.1875 0.53125,0 0.92969,0.16406 1.2031,0.48438 0.28125,0.32422 0.42188,0.79688 0.42188,1.4219 z"
         id="path19407" /></symbol><symbol
       id="o-3"
       overflow="visible"><path
         d="m 0.65625,-1.7969 v -2.7969 h 1.4844 v 0.45312 c 0,0.25 -0.00781,0.5625 -0.015625,0.9375 v 0.75 c 0,0.375 0.00781,0.64844 0.03125,0.8125 0.019531,0.15625 0.050781,0.27344 0.09375,0.34375 0.0625,0.09375 0.14062,0.16797 0.23438,0.21875 0.10156,0.054687 0.21875,0.078125 0.34375,0.078125 0.30078,0 0.53906,-0.11328 0.71875,-0.34375 0.17578,-0.23828 0.26562,-0.56641 0.26562,-0.98438 v -2.2656 h 1.4688 v 4.5938 h -1.4688 v -0.67188 c -0.21875,0.27344 -0.45312,0.47656 -0.70312,0.60938 -0.25,0.125 -0.52734,0.1875 -0.82812,0.1875 -0.53125,0 -0.9375,-0.16016 -1.2188,-0.48438 -0.27344,-0.33203 -0.40625,-0.8125 -0.40625,-1.4375 z"
         id="path19410" /></symbol><symbol
       id="n-3"
       overflow="visible"><path
         d="M 5.3281,-2.7969 V 0 H 3.8437 v -2.1406 c 0,-0.39453 -0.011719,-0.66406 -0.03125,-0.8125 -0.011719,-0.15625 -0.039062,-0.26953 -0.078125,-0.34375 -0.0625,-0.09375 -0.14844,-0.16406 -0.25,-0.21875 -0.09375,-0.050781 -0.20312,-0.078125 -0.32812,-0.078125 -0.30469,0 -0.54297,0.12109 -0.71875,0.35938 -0.17969,0.23047 -0.26562,0.55469 -0.26562,0.96875 V 5e-6 h -1.4688 v -4.5938 h 1.4688 v 0.67188 c 0.22656,-0.26953 0.46094,-0.46875 0.70312,-0.59375 0.25,-0.125 0.52344,-0.1875 0.82812,-0.1875 0.53125,0 0.92969,0.16406 1.2031,0.48438 0.28125,0.32422 0.42188,0.79688 0.42188,1.4219 z"
         id="path19413" /></symbol><symbol
       id="m-5"
       overflow="visible"><path
         d="m 0.76562,-6.125 h 2.625 c 0.78125,0 1.3789,0.17188 1.7969,0.51562 0.41406,0.34375 0.625,0.83984 0.625,1.4844 0,0.63672 -0.21094,1.1328 -0.625,1.4844 -0.41797,0.34375 -1.0156,0.51562 -1.7969,0.51562 H 2.35942 V 4e-5 h -1.5938 z m 1.5938,1.1406 v 1.7188 H 3.2188 c 0.3125,0 0.55078,-0.070313 0.71875,-0.21875 0.16406,-0.15625 0.25,-0.36719 0.25,-0.64062 0,-0.28125 -0.085938,-0.49219 -0.25,-0.64062 C 3.76958,-4.91012 3.5313,-4.98434 3.2188,-4.98434 Z"
         id="path19416" /></symbol><symbol
       id="l-6"
       overflow="visible"><path
         d="m 0.70312,-4.5938 h 1.4688 v 4.5156 c 0,0.61328 -0.15234,1.082 -0.45312,1.4062 C 1.42583,1.64831 1.00396,1.81238 0.4532,1.81238 H -0.28118 V 0.84363 h 0.25 c 0.28125,0 0.47266,-0.0625 0.57812,-0.1875 0.10156,-0.125 0.15625,-0.37109 0.15625,-0.73438 z m 0,-1.7969 h 1.4688 v 1.2031 h -1.4688 z"
         id="path19419" /></symbol><symbol
       id="k-1"
       overflow="visible"><path
         d="M 4.4219,-4.4531 V -3.25 C 4.22268,-3.38281 4.01956,-3.48438 3.81252,-3.54688 3.6133,-3.617193 3.40627,-3.65626 3.18752,-3.65626 c -0.40625,0 -0.72656,0.12109 -0.95312,0.35938 -0.23047,0.24219 -0.34375,0.57422 -0.34375,1 0,0.42969 0.11328,0.76172 0.34375,1 0.22656,0.24219 0.54688,0.35938 0.95312,0.35938 0.22656,0 0.44531,-0.03125 0.65625,-0.09375 0.20703,-0.070312 0.39844,-0.17578 0.57812,-0.3125 v 1.2031 C 4.19142,-0.054712 3.95705,0.00388 3.71877,0.04685 3.47658,0.097631 3.24221,0.124975 3.01565,0.124975 c -0.83594,0 -1.4844,-0.21094 -1.9531,-0.64062 -0.46875,-0.42578 -0.70312,-1.0195 -0.70312,-1.7812 0,-0.75781 0.23438,-1.3477 0.70312,-1.7656 0.46875,-0.42578 1.1172,-0.64062 1.9531,-0.64062 0.23828,0 0.47266,0.023437 0.70312,0.0625 0.23828,0.042969 0.47266,0.10547 0.70312,0.1875 z"
         id="path19422" /></symbol><mask
       maskUnits="userSpaceOnUse"
       id="mask-powermask-path-effect24423"><rect
         style="fill:#000000;fill-opacity:1;stroke:none;stroke-width:1.124;stroke-dasharray:1.124, 3.37201;stroke-dashoffset:0;stroke-opacity:1"
         id="rect24421"
         width="23.424538"
         height="18.219086"
         x="64.778969"
         y="55.235638"
         rx="0.10583334"
         ry="4.006"
         d="m 64.884802,55.235638 h 23.212871 c 0.05863,0 0.105833,1.786676 0.105833,4.006 v 10.207085 c 0,2.219324 -0.0472,4.006 -0.105833,4.006 H 64.884802 c -0.05863,0 -0.105833,-1.786676 -0.105833,-4.006 V 59.241638 c 0,-2.219324 0.0472,-4.006 0.105833,-4.006 z" /></mask><filter
       id="mask-powermask-path-effect24423_inverse"
       inkscape:label="filtermask-powermask-path-effect24423"
       style="color-interpolation-filters:sRGB"
       height="100"
       width="100"
       x="-50"
       y="-50"><feColorMatrix
         id="mask-powermask-path-effect24423_primitive1"
         values="1"
         type="saturate"
         result="fbSourceGraphic" /><feColorMatrix
         id="mask-powermask-path-effect24423_primitive2"
         values="-1 0 0 0 1 0 -1 0 0 1 0 0 -1 0 1 0 0 0 1 0 "
         in="fbSourceGraphic" /></filter><mask
       maskUnits="userSpaceOnUse"
       id="mask-powermask-path-effect24435"><rect
         style="fill:#000000;fill-opacity:1;stroke:none;stroke-width:1.124;stroke-dasharray:1.124, 3.37201;stroke-dashoffset:0;stroke-opacity:1"
         id="rect24433"
         width="32.100292"
         height="21.978579"
         x="61.887047"
         y="96.300873"
         rx="0.10583334"
         ry="4.006"
         d="m 61.99288,96.300873 h 31.888626 c 0.05863,0 0.105833,1.786676 0.105833,4.005997 v 13.96658 c 0,2.21933 -0.0472,4.006 -0.105833,4.006 H 61.99288 c -0.05863,0 -0.105833,-1.78667 -0.105833,-4.006 v -13.96658 c 0,-2.219321 0.0472,-4.005997 0.105833,-4.005997 z" /></mask><filter
       id="mask-powermask-path-effect24435_inverse"
       inkscape:label="filtermask-powermask-path-effect24435"
       style="color-interpolation-filters:sRGB"
       height="100"
       width="100"
       x="-50"
       y="-50"><feColorMatrix
         id="mask-powermask-path-effect24435_primitive1"
         values="1"
         type="saturate"
         result="fbSourceGraphic" /><feColorMatrix
         id="mask-powermask-path-effect24435_primitive2"
         values="-1 0 0 0 1 0 -1 0 0 1 0 0 -1 0 1 0 0 0 1 0 "
         in="fbSourceGraphic" /></filter><filter
       id="mask-powermask-path-effect24457_inverse"
       inkscape:label="filtermask-powermask-path-effect24457"
       style="color-interpolation-filters:sRGB"
       height="100"
       width="100"
       x="-50"
       y="-50"><feColorMatrix
         id="mask-powermask-path-effect24457_primitive1"
         values="1"
         type="saturate"
         result="fbSourceGraphic" /><feColorMatrix
         id="mask-powermask-path-effect24457_primitive2"
         values="-1 0 0 0 1 0 -1 0 0 1 0 0 -1 0 1 0 0 0 1 0 "
         in="fbSourceGraphic" /></filter><filter
       id="mask-powermask-path-effect24462_inverse"
       inkscape:label="filtermask-powermask-path-effect24462"
       style="color-interpolation-filters:sRGB"
       height="100"
       width="100"
       x="-50"
       y="-50"><feColorMatrix
         id="mask-powermask-path-effect24462_primitive1"
         values="1"
         type="saturate"
         result="fbSourceGraphic" /><feColorMatrix
         id="mask-powermask-path-effect24462_primitive2"
         values="-1 0 0 0 1 0 -1 0 0 1 0 0 -1 0 1 0 0 0 1 0 "
         in="fbSourceGraphic" /></filter><mask
       maskUnits="userSpaceOnUse"
       id="mask-powermask-path-effect24491"><path
         id="mask-powermask-path-effect24491_box"
         style="fill:#ffffff;fill-opacity:1"
         d="M 2.5220756,15.827774 H 74.113754 V 139.46831 H 2.5220756 Z" /><path
         id="mask-powermask-path-effect24435_box"
         style="fill:#ffffff;fill-opacity:1"
         d="M 2.5220756,15.827774 H 74.113754 V 139.46831 H 2.5220756 Z" /><path
         id="mask-powermask-path-effect24423_box"
         style="fill:#ffffff;fill-opacity:1"
         d="M 2.5220756,15.827774 H 74.113754 V 139.46831 H 2.5220756 Z" /><g
         id="g24489"
         style=""><rect
           style="fill:#000000;fill-opacity:1;stroke:none;stroke-width:1.124;stroke-dasharray:1.124, 3.37201;stroke-dashoffset:0;stroke-opacity:1"
           id="rect24485"
           width="33.257061"
           height="15.616358"
           x="59.862705"
           y="56.103214"
           rx="0.10583334"
           ry="4.006"
           d="m 59.968539,56.103214 h 33.045394 c 0.05863,0 0.105833,1.786676 0.105833,4.006 v 7.604358 c 0,2.219324 -0.0472,4.006 -0.105833,4.006 H 59.968539 c -0.05863,0 -0.105834,-1.786676 -0.105834,-4.006 v -7.604358 c 0,-2.219324 0.0472,-4.006 0.105834,-4.006 z" /><rect
           style="fill:#000000;fill-opacity:1;stroke:none;stroke-width:1.124;stroke-dasharray:1.124, 3.37201;stroke-dashoffset:0;stroke-opacity:1"
           id="rect24487"
           width="33.546249"
           height="14.748782"
           x="60.730278"
           y="102.08471"
           rx="0.10583334"
           ry="4.006"
           d="m 60.836111,102.08471 h 33.334583 c 0.05863,0 0.105833,1.78668 0.105833,4.006 v 6.73678 c 0,2.21933 -0.0472,4.006 -0.105833,4.006 H 60.836111 c -0.05863,0 -0.105833,-1.78667 -0.105833,-4.006 v -6.73678 c 0,-2.21932 0.0472,-4.006 0.105833,-4.006 z" /></g></mask><filter
       id="mask-powermask-path-effect24491_inverse"
       inkscape:label="filtermask-powermask-path-effect24491"
       style="color-interpolation-filters:sRGB"
       height="100"
       width="100"
       x="-50"
       y="-50"><feColorMatrix
         id="mask-powermask-path-effect24491_primitive1"
         values="1"
         type="saturate"
         result="fbSourceGraphic" /><feColorMatrix
         id="mask-powermask-path-effect24491_primitive2"
         values="-1 0 0 0 1 0 -1 0 0 1 0 0 -1 0 1 0 0 0 1 0 "
         in="fbSourceGraphic" /></filter><mask
       maskUnits="userSpaceOnUse"
       id="mask-powermask-path-effect24523"><path
         id="mask-powermask-path-effect24523_box"
         style="fill:#ffffff;fill-opacity:1"
         d="M 79.591981,15.394027 H 152.33989 V 139.61284 H 79.591981 Z" /><g
         id="g24521"
         style=""><rect
           style="fill:#000000;fill-opacity:1;stroke:none;stroke-width:1.124;stroke-dasharray:1.124, 3.37201;stroke-dashoffset:0;stroke-opacity:1"
           id="rect24517"
           width="25.738073"
           height="19.665045"
           x="67.960075"
           y="54.078869"
           rx="0.10583334"
           ry="4.006"
           d="m 68.065909,54.078869 h 25.526406 c 0.05863,0 0.105834,1.786676 0.105834,4.006 v 11.653045 c 0,2.219324 -0.0472,4.006 -0.105834,4.006 H 68.065909 c -0.05863,0 -0.105834,-1.786676 -0.105834,-4.006 V 58.084869 c 0,-2.219324 0.0472,-4.006 0.105834,-4.006 z" /><rect
           style="fill:#000000;fill-opacity:1;stroke:none;stroke-width:1.124;stroke-dasharray:1.124, 3.37201;stroke-dashoffset:0;stroke-opacity:1"
           id="rect24519"
           width="24.292114"
           height="19.954237"
           x="68.827652"
           y="99.192787"
           rx="0.10583334"
           ry="4.006"
           d="m 68.933485,99.192787 h 24.080448 c 0.05863,0 0.105833,1.786673 0.105833,4.006003 v 11.94223 c 0,2.21933 -0.0472,4.006 -0.105833,4.006 H 68.933485 c -0.05863,0 -0.105833,-1.78667 -0.105833,-4.006 v -11.94223 c 0,-2.21933 0.0472,-4.006003 0.105833,-4.006003 z" /></g></mask><filter
       id="mask-powermask-path-effect24523_inverse"
       inkscape:label="filtermask-powermask-path-effect24523"
       style="color-interpolation-filters:sRGB"
       height="100"
       width="100"
       x="-50"
       y="-50"><feColorMatrix
         id="mask-powermask-path-effect24523_primitive1"
         values="1"
         type="saturate"
         result="fbSourceGraphic" /><feColorMatrix
         id="mask-powermask-path-effect24523_primitive2"
         values="-1 0 0 0 1 0 -1 0 0 1 0 0 -1 0 1 0 0 0 1 0 "
         in="fbSourceGraphic" /></filter><mask
       id="torn"><rect
         x="287"
         y="285"
         width="26"
         height="30"
         fill="#ffffff"
         id="rect31287" /><line
         x1="299"
         y1="317"
         x2="315"
         y2="301"
         stroke-width="3"
         stroke="#000000"
         id="line31289" /></mask></defs><g
     inkscape:label="Layer 1"
     inkscape:groupmode="layer"
     id="layer1"><text
       xml:space="preserve"
       style="font-style:normal;font-variant:normal;font-weight:bold;font-stretch:normal;font-size:11.2889px;font-family:Calibri;-inkscape-font-specification:'Calibri Bold';fill:#7b7b7b;fill-opacity:1;stroke:none;stroke-width:1.05;stroke-dasharray:3.15, 3.15;stroke-dashoffset:0;stroke-opacity:1"
       x="18.219086"
       y="173.22591"
       id="text18705"><tspan
         sodipodi:role="line"
         id="tspan18703"
         style="font-style:normal;font-variant:normal;font-weight:bold;font-stretch:normal;font-size:11.2889px;font-family:Calibri;-inkscape-font-specification:'Calibri Bold';fill:#7b7b7b;fill-opacity:1;stroke:none;stroke-width:1.05;stroke-dasharray:3.15, 3.15;stroke-dashoffset:0"
         x="18.219086"
         y="173.22591" /></text><g
       id="g12838"
       transform="matrix(0.06580054,0,0,0.07239162,34.295031,47.121177)"
       style="fill:#7828a7;fill-opacity:1"><path
         d="m 101.44665,78.420004 h -9.482317 c -3.555294,0 -6.322483,2.765707 -8.297333,6.322483 -1.97612,-3.556705 -4.741686,-6.322483 -8.297334,-6.322483 h -9.482314 c -2.370243,0 -3.950758,1.580621 -3.950758,3.950758 0,2.370138 1.580621,3.950759 3.950758,3.950759 h 9.088262 c 1.185121,0.789622 3.555294,5.531555 4.741686,9.482314 0.395499,1.58062 1.97612,2.765707 3.950758,2.765707 1.580621,0 3.161207,-1.185122 3.950758,-2.765707 1.185122,-4.346223 3.555295,-8.692798 4.741687,-9.482314 l 9.085437,0.0014 c 2.37024,0 3.95076,-1.580621 3.95076,-3.950759 0.001,-2.371619 -1.57925,-3.952169 -3.95076,-3.952169 z"
         id="path12350"
         style="fill:#7828a7;fill-opacity:1;stroke-width:0.352778" /><path
         d="M 113.69509,-8.5044411 H 53.638202 c -26.078039,0 -47.0182222,20.9405361 -47.0182222,47.0182221 v 72.305339 c 0,14.61946 10.2732422,26.86755 23.7063142,30.02879 v 16.59291 c 0,17.77929 15.804797,31.60959 35.56,31.60959 h 35.559996 c 19.75556,0 35.56,-14.224 35.56,-32.39911 v -16.20026 c 13.43308,-3.16121 23.70632,-15.40934 23.70632,-30.0288 l -0.001,-71.910222 c 0,-26.07804 -20.94054,-47.018223 -47.01823,-47.018223 z M 129.10443,133.73556 v 22.91539 c 0,15.40933 -14.22401,24.49724 -27.65708,24.49724 H 65.887352 c -13.433072,0 -27.657072,-8.29734 -27.657072,-23.70632 V 129.7848 h 90.87556 z m 7.90151,-57.291112 c 0,7.507464 -6.32248,13.828537 -13.82853,13.828537 0,0 -5.1361,1.185121 -0.78963,7.901516 3.16121,4.741689 5.92702,12.248089 6.71654,23.706319 l -90.875557,0.001 c 0.789623,-11.45823 3.555295,-18.96604 6.716536,-23.706318 4.346223,-6.716536 -0.789622,-7.901516 -0.789622,-7.901516 -7.507464,0 -13.828536,-6.322484 -13.828536,-13.828537 V 53.924526 c 0,-9.088261 5.531555,-17.385242 14.224,-20.15102 14.224,-4.346222 26.472091,6.716537 26.472091,20.940537 l 10.667295,-0.0014 h 14.618406 c 0,-13.828537 12.248087,-24.891648 26.472087,-20.940537 8.6928,2.370244 14.224,11.062759 14.224,20.15102 z"
         id="path12352"
         style="fill:#7828a7;fill-opacity:1;stroke-width:0.352778" /><path
         d="m -32.890426,57.874226 v 10.273242 c 0,11.854039 9.877778,22.125869 21.731817,22.125869 h 9.8763666 V 66.567023 H -13.13487 c -2.370244,0 -3.950759,-1.580621 -3.950759,-3.950758 0,-2.370138 1.580621,-3.950758 3.950759,-3.950758 h 11.8540387 c 0,-11.854039 0.39549916,-22.521334 0.39549916,-23.706314 l -10.27465286,-0.0014 c -11.852628,0 -21.730406,11.062759 -21.730406,22.916798 z"
         id="path12354"
         style="fill:#7828a7;fill-opacity:1;stroke-width:0.352778" /><path
         d="m 178.49331,34.957781 h -10.27324 c 0.3955,2.370244 0.3955,5.136092 0.3955,7.507464 v 16.200262 h 11.85404 c 2.37024,0 3.95076,1.58062 3.95076,3.950758 0,2.370137 -1.58062,3.950758 -3.95076,3.950758 h -11.85404 v 23.706314 h 9.87778 c 11.85404,0 21.73182,-9.877778 21.73182,-21.731817 V 58.268279 c -0.001,-12.248092 -9.87919,-23.31085 -21.73182,-23.31085 z"
         id="path12356"
         style="fill:#7828a7;fill-opacity:1;stroke-width:0.352778" /><path
         d="m 125.15331,58.664448 c 0,4.364214 -3.53871,7.902928 -7.90292,7.902928 -4.36422,0 -7.90152,-3.538714 -7.90152,-7.902928 0,-4.364214 3.5373,-7.901517 7.90152,-7.901517 4.36421,0 7.90292,3.537303 7.90292,7.901517"
         id="path12358"
         style="fill:#7828a7;fill-opacity:1;stroke-width:0.352778" /><path
         d="m 57.984425,58.664448 c 0,4.364214 -3.537303,7.902928 -7.901517,7.902928 -4.364214,0 -7.902928,-3.538714 -7.902928,-7.902928 0,-4.364214 3.538714,-7.901517 7.902928,-7.901517 4.364214,0 7.901517,3.537303 7.901517,7.901517"
         id="path12360"
         style="fill:#7828a7;fill-opacity:1;stroke-width:0.352778" /></g><rect
       style="fill:none;stroke:#858585;stroke-width:0.862681;stroke-dasharray:none;stroke-opacity:1"
       id="rect12892"
       width="23.458176"
       height="28.952818"
       x="28.034786"
       y="38.612026"
       rx="0.038845297"
       ry="0.045280524" /><rect
       style="fill:none;stroke:#858585;stroke-width:0.862681;stroke-dasharray:none;stroke-opacity:1"
       id="rect12892-6"
       width="23.458176"
       height="28.952818"
       x="27.939407"
       y="81.990799"
       rx="0.038845297"
       ry="0.045280524" /><path
       d="M 103.19725,51.737988 90.904773,41.061048 c -0.297426,-0.253657 -0.80599,-0.255845 -1.092688,-0.02936 -0.290994,0.230007 -0.312422,0.651894 -0.03589,0.893284 l 11.067925,9.617202 H 56.524941 c -0.424439,0 -0.768483,0.281258 -0.768483,0.628241 0,0.346981 0.344044,0.62824 0.768483,0.62824 H 100.8441 l -11.06792,9.617198 c -0.27652,0.241389 -0.259371,0.667226 0.03589,0.893284 0.295272,0.226058 0.771157,0.231755 1.092688,-0.02936 L 103.19724,52.602835 c 0.29206,-0.293968 0.21543,-0.654081 0,-0.863496 z"
       id="path16533"
       style="fill:#7a7a7a;fill-opacity:1;stroke-width:0.124042" /><path
       d="M 54.797825,96.568949 66.536843,87.25754 c 0.284029,-0.221217 0.769699,-0.223122 1.043487,-0.02563 0.277896,0.200592 0.29835,0.568522 0.0343,0.779033 L 57.045037,96.398149 H 99.36872 c 0.405333,0 0.73388,0.24529 0.73388,0.54789 0,0.30261 -0.328547,0.54789 -0.73388,0.54789 H 57.04503 l 10.569586,8.387211 c 0.264073,0.21051 0.247692,0.58189 -0.0343,0.77903 -0.281978,0.19715 -0.736437,0.20211 -1.043486,-0.0256 L 54.79781,97.323159 c -0.278913,-0.25636 -0.205725,-0.57041 0,-0.75305 z"
       id="path16533-6"
       style="fill:#7a7a7a;fill-opacity:1;stroke-width:0.113201" /><path
       style="fill:none;fill-opacity:1;stroke:#858585;stroke-width:1.124;stroke-dasharray:1.124, 3.372;stroke-dashoffset:0;stroke-opacity:1"
       id="rect18595"
       width="68.467674"
       height="120.51653"
       x="4.0840769"
       y="17.389774"
       rx="0.11546819"
       ry="4.2051454"
       mask="url(#mask-powermask-path-effect24491)"
       inkscape:path-effect="#path-effect24423;#path-effect24435;#path-effect24491"
       d="M 4.1995451,17.389774 H 72.436283 c 0.06397,0 0.115468,1.875495 0.115468,4.205146 v 112.10624 c 0,2.32965 -0.0515,4.20515 -0.115468,4.20515 H 4.1995451 c -0.063969,0 -0.1154682,-1.8755 -0.1154682,-4.20515 V 21.59492 c 0,-2.329651 0.051499,-4.205146 0.1154682,-4.205146 z"
       sodipodi:type="rect"
       transform="translate(2.0243427,-11.278481)" /><path
       style="fill:none;fill-opacity:1;stroke:#858585;stroke-width:1.13571;stroke-dasharray:1.13571, 3.40713;stroke-dashoffset:0;stroke-opacity:1"
       id="rect18595-0"
       width="69.612198"
       height="121.08311"
       x="81.159836"
       y="16.961882"
       rx="0.11739839"
       ry="4.2249155"
       mask="url(#mask-powermask-path-effect24523)"
       inkscape:path-effect="#path-effect24523"
       d="m 81.277234,16.961882 h 69.377406 c 0.065,0 0.11739,1.884312 0.11739,4.224915 V 133.82007 c 0,2.34061 -0.0524,4.22492 -0.11739,4.22492 H 81.277234 c -0.06504,0 -0.117398,-1.88431 -0.117398,-4.22492 V 21.186797 c 0,-2.340603 0.05236,-4.224915 0.117398,-4.224915 z"
       sodipodi:type="rect"
       transform="translate(2.0243427,-11.278481)" /><text
       xml:space="preserve"
       style="font-style:normal;font-variant:normal;font-weight:bold;font-stretch:normal;font-size:7.92057px;font-family:Calibri;-inkscape-font-specification:'Calibri Bold';fill:#000000;fill-opacity:1;stroke:none;stroke-width:0.736706;stroke-dasharray:2.21012, 2.21012;stroke-dashoffset:0;stroke-opacity:1"
       x="17.827347"
       y="19.271187"
       id="text18865"
       transform="scale(1.0897726,0.91762264)"><tspan
         sodipodi:role="line"
         id="tspan18863"
         style="font-style:normal;font-variant:normal;font-weight:normal;font-stretch:normal;font-family:Corbel;-inkscape-font-specification:Corbel;fill:#000000;fill-opacity:1;stroke-width:0.736706"
         x="17.827347"
         y="19.271187">Your Wallet</tspan></text><text
       xml:space="preserve"
       style="font-style:normal;font-variant:normal;font-weight:bold;font-stretch:normal;font-size:7.92057px;font-family:Calibri;-inkscape-font-specification:'Calibri Bold';fill:#000000;fill-opacity:1;stroke:none;stroke-width:0.736706;stroke-dasharray:2.21012, 2.21012;stroke-dashoffset:0;stroke-opacity:1"
       x="108.27249"
       y="15.304197"
       id="text18865-0"
       transform="scale(1.0897726,0.91762264)"><tspan
         sodipodi:role="line"
         id="tspan18863-5"
         style="font-style:normal;font-variant:normal;font-weight:bold;font-stretch:normal;font-family:Corbel;-inkscape-font-specification:'Corbel Bold';text-align:center;text-anchor:middle;fill:#000000;fill-opacity:1;stroke-width:0.736706"
         x="108.27249"
         y="15.304197">offchainnft.eth</tspan><tspan
         sodipodi:role="line"
         style="font-style:normal;font-variant:normal;font-weight:normal;font-stretch:normal;font-family:Corbel;-inkscape-font-specification:Corbel;text-align:center;text-anchor:middle;fill:#000000;fill-opacity:1;stroke-width:0.736706"
         x="108.27249"
         y="25.255186"
         id="tspan18988">Contract</tspan></text><path
       d="m 123.14838,38.984979 c 0,0 -1.80015,2.68104 -0.24054,5.424085 1.56075,2.743096 2.92896,4.904614 2.61602,7.210895 0,0 0.79219,-3.740635 4.80101,-4.718011 0,0 -1.48815,2.431216 -0.67245,5.860948 0.81564,3.428904 -1.03255,9.830122 -8.61849,11.493017 0,0 6.7218,-3.096569 1.89642,-8.12641 0,0 -0.11973,2.473738 -2.60462,3.210814 0,0 3.91255,-5.767162 -1.84842,-11.129047 0,0 1.32022,3.720325 -3.09691,6.900378 -4.41712,3.180055 -2.23214,8.292118 0.31223,8.998191 0,0 -13.87576,-5.361885 -5.61766,-16.417555 0,0 0.28854,2.514556 2.40092,3.491737 0,0 -0.31223,-10.785971 10.67121,-12.199091 z"
       fill-rule="evenodd"
       id="path19427"
       style="fill:#db8019;fill-opacity:1;stroke-width:0.0522272" /><g
       id="g23262"
       transform="matrix(0.04152842,0,0,0.05334108,103.02138,81.448533)"
       style="fill:#2065ce;fill-opacity:1"><path
         d="m 232.23,280 c 4.8789,-1.4219 8.8984,-4.8984 11.012,-9.5195 2.1172,-4.625 2.1172,-9.9375 0,-14.559 -2.1133,-4.625 -6.1328,-8.0977 -11.012,-9.5234 -9.8906,-2.2812 -18.902,-7.3789 -25.953,-14.68 -7.0508,-7.2969 -11.836,-16.484 -13.773,-26.445 -1.4219,-4.8789 -4.8984,-8.8984 -9.5195,-11.012 -4.625,-2.1172 -9.9375,-2.1172 -14.559,0 -4.625,2.1133 -8.0977,6.1328 -9.5234,11.012 -2.2812,9.8906 -7.3789,18.902 -14.68,25.953 -7.2969,7.0508 -16.484,11.836 -26.445,13.773 -4.8789,1.4219 -8.8984,4.8984 -11.012,9.5195 -2.1172,4.625 -2.1172,9.9375 0,14.559 2.1133,4.625 6.1328,8.0977 11.012,9.5234 9.8906,2.2812 18.902,7.3789 25.953,14.68 7.0508,7.2969 11.836,16.484 13.773,26.445 1.4219,4.8789 4.8984,8.8984 9.5195,11.012 4.625,2.1172 9.9375,2.1172 14.559,0 4.625,-2.1133 8.0977,-6.1328 9.5234,-11.012 2.2812,-9.8906 7.3789,-18.902 14.68,-25.953 7.2969,-7.0508 16.484,-11.836 26.445,-13.773 z m -57.227,-4.1992 c -3.8008,-5.0234 -8.2773,-9.5 -13.301,-13.301 4.9844,-3.8477 9.4531,-8.3164 13.301,-13.301 3.8906,4.9453 8.3555,9.4102 13.301,13.301 -4.9844,3.8477 -9.4531,8.3164 -13.301,13.301 z"
         id="path23252"
         style="fill:#2065ce;fill-opacity:1" /><path
         d="m 240.27,140 c 14.008,3.0781 26.844,10.102 36.984,20.242 10.141,10.141 17.164,22.977 20.242,36.984 1.4219,4.8789 4.8984,8.8984 9.5195,11.012 4.625,2.1172 9.9375,2.1172 14.559,0 4.625,-2.1133 8.0977,-6.1328 9.5234,-11.012 3.1758,-14.195 10.41,-27.156 20.816,-37.316 10.41,-10.156 23.543,-17.074 37.809,-19.91 4.8789,-1.4219 8.8984,-4.8984 11.012,-9.5195 2.1172,-4.625 2.1172,-9.9375 0,-14.559 -2.1133,-4.625 -6.1328,-8.0977 -11.012,-9.5234 -14.195,-3.1758 -27.156,-10.41 -37.316,-20.816 -10.156,-10.41 -17.074,-23.543 -19.91,-37.809 -1.4219,-4.8789 -4.8984,-8.8984 -9.5195,-11.012 -4.625,-2.1172 -9.9375,-2.1172 -14.559,0 -4.625,2.1133 -8.0977,6.1328 -9.5234,11.012 -3.1758,14.195 -10.41,27.156 -20.816,37.316 -10.41,10.156 -23.543,17.074 -37.809,19.91 -6.25,0 -12.027,3.3359 -15.152,8.75 -3.1289,5.4141 -3.1289,12.086 0,17.5 3.125,5.4141 8.9023,8.75 15.152,8.75 z m 74.727,-45.148 c 7.3828,10.883 16.766,20.266 27.648,27.648 -10.922,7.332 -20.316,16.727 -27.648,27.648 -7.2891,-10.961 -16.688,-20.359 -27.648,-27.648 10.922,-7.332 20.316,-16.727 27.648,-27.648 z"
         id="path23254"
         style="fill:#2065ce;fill-opacity:1" /><path
         d="m 354.73,420 c -14.008,-3.0781 -26.844,-10.102 -36.984,-20.242 -10.141,-10.141 -17.164,-22.977 -20.242,-36.984 -1.4219,-4.8789 -4.8984,-8.8984 -9.5195,-11.012 -4.625,-2.1172 -9.9375,-2.1172 -14.559,0 -4.625,2.1133 -8.0977,6.1328 -9.5234,11.012 -3.1758,14.195 -10.41,27.156 -20.816,37.316 -10.41,10.156 -23.543,17.074 -37.809,19.91 -4.8789,1.4219 -8.8984,4.8984 -11.012,9.5195 -2.1172,4.625 -2.1172,9.9375 0,14.559 2.1133,4.625 6.1328,8.0977 11.012,9.5234 14.195,3.1758 27.156,10.41 37.316,20.816 10.156,10.41 17.074,23.543 19.91,37.809 1.4219,4.8789 4.8984,8.8984 9.5195,11.012 4.625,2.1172 9.9375,2.1172 14.559,0 4.625,-2.1133 8.0977,-6.1328 9.5234,-11.012 3.1758,-14.195 10.41,-27.156 20.816,-37.316 10.41,-10.156 23.543,-17.074 37.809,-19.91 4.8789,-1.4219 8.8984,-4.8984 11.012,-9.5195 2.1172,-4.625 2.1172,-9.9375 0,-14.559 -2.1133,-4.625 -6.1328,-8.0977 -11.012,-9.5234 z m -74.727,45.148 c -7.2891,-10.961 -16.688,-20.359 -27.648,-27.648 10.922,-7.332 20.316,-16.727 27.648,-27.648 7.3828,10.883 16.766,20.266 27.648,27.648 -10.922,7.332 -20.316,16.727 -27.648,27.648 z"
         id="path23256"
         style="fill:#2065ce;fill-opacity:1" /><path
         d="m 582.23,289.45 c -24.883,-5.4805 -47.68,-17.965 -65.695,-35.98 -18.015,-18.015 -30.5,-40.812 -35.98,-65.695 -1.4258,-4.8789 -4.8984,-8.8984 -9.5195,-11.012 -4.625,-2.1172 -9.9375,-2.1172 -14.562,0 -4.6211,2.1133 -8.0938,6.1328 -9.5195,11.012 -5.4414,24.902 -17.914,47.719 -35.934,65.742 -18.023,18.02 -40.84,30.492 -65.742,35.934 -4.8789,1.4258 -8.8984,4.8984 -11.012,9.5195 -2.1172,4.625 -2.1172,9.9375 0,14.562 2.1133,4.6211 6.1328,8.0938 11.012,9.5195 24.902,5.4414 47.719,17.914 65.742,35.934 18.02,18.023 30.492,40.84 35.934,65.742 1.4258,4.8789 4.8984,8.8984 9.5195,11.012 4.625,2.1172 9.9375,2.1172 14.562,0 4.6211,-2.1133 8.0938,-6.1328 9.5195,-11.012 5.4805,-24.883 17.965,-47.68 35.98,-65.695 18.015,-18.015 40.812,-30.5 65.695,-35.98 4.8789,-1.4258 8.8984,-4.8984 11.012,-9.5195 2.1172,-4.625 2.1172,-9.9375 0,-14.562 -2.1133,-4.6211 -6.1328,-8.0938 -11.012,-9.5195 z m -118.48,83.301 c -14.703,-28.492 -37.875,-51.723 -66.324,-66.5 28.355,-14.906 51.492,-38.105 66.324,-66.5 14.875,28.422 38.078,51.625 66.5,66.5 -28.469,14.812 -51.688,38.031 -66.5,66.5 z"
         id="path23258"
         style="fill:#2065ce;fill-opacity:1" /><path
         d="m 480.73,118.48 c 3.5273,0.625 6.7812,2.3203 9.3164,4.8555 2.5352,2.5352 4.2305,5.7891 4.8555,9.3164 1.3555,4.9805 4.8359,9.1055 9.5117,11.281 4.6797,2.1758 10.078,2.1758 14.754,0 4.6797,-2.1758 8.1562,-6.3008 9.5117,-11.281 0.60156,-3.4805 2.2461,-6.6992 4.7148,-9.2305 2.4688,-2.5273 5.6445,-4.2539 9.1094,-4.9414 3.7852,-1.0586 7.1055,-3.3633 9.4219,-6.5352 2.3164,-3.1758 3.5,-7.0391 3.3516,-10.965 0.14844,-3.9297 -1.0352,-7.793 -3.3516,-10.965 -2.3164,-3.1758 -5.6367,-5.4766 -9.4219,-6.5352 -3.3711,-0.64453 -6.4805,-2.2656 -8.9375,-4.6602 -2.4609,-2.3945 -4.1602,-5.4609 -4.8867,-8.8164 -1.3555,-4.9766 -4.832,-9.1055 -9.5117,-11.281 -4.6758,-2.1719 -10.074,-2.1719 -14.754,0 -4.6758,2.1758 -8.1562,6.3047 -9.5117,11.281 -0.625,3.5312 -2.3203,6.7812 -4.8555,9.3164 -2.5352,2.5391 -5.7891,4.2344 -9.3164,4.8594 -3.7539,1.0898 -7.0352,3.4062 -9.3164,6.5781 -2.2852,3.1719 -3.4414,7.0156 -3.2852,10.922 0,3.7852 1.2266,7.4688 3.5,10.5 2.2734,3.0273 5.4648,5.2383 9.1016,6.3008 z"
         id="path23260"
         style="fill:#2065ce;fill-opacity:1" /></g><g
       mask="url(#torn)"
       id="g31300"
       transform="matrix(0.46810898,0,0,0.46810898,-100.7345,-43.996594)"><polygon
         points="288,286 306,286 306,292 312,292 312,314 288,314 "
         stroke-width="2"
         stroke="#9e9e9e"
         fill="#c7d3eb"
         id="polygon31292" /><polygon
         points="306,285.41421 312.58579,292 306,292 "
         stroke-width="2"
         stroke="#9e9e9e"
         fill="#ffffff"
         id="polygon31294" /><path
         d="m 289,313 a 11,11 0 0 1 22,0"
         fill="#58ae39"
         id="path31296" /><path
         d="m 300,296 c 0.75,0 2,-2.25 0.5,-3.75 -2,-2 -5.625,-2.25 -6.625,0.75 -2.5,0.75 -1.875,3 -0.625,3 H 300"
         fill="#ffffff"
         id="path31298" /></g></g></svg>
